<?xml version="1.0" encoding="utf-8"?>
<!-- Svg Vector Icons : http://www.onlinewebfonts.com/icon -->
<!DOCTYPE svg PUBLIC "-//W3C//DTD SVG 1.1//EN" "http://www.w3.org/Graphics/SVG/1.1/DTD/svg11.dtd">
<svg version="1.1" xmlns="http://www.w3.org/2000/svg" xmlns:xlink="http://www.w3.org/1999/xlink" x="0px" y="0px" viewBox="0 0 256 256" enable-background="new 0 0 256 256" xml:space="preserve">
<metadata> Svg Vector Icons : http://www.onlinewebfonts.com/icon </metadata>
<g><g><path fill="#000000" d="M51.1,111.1v-6.7H191v6.7H51.1L51.1,111.1z M51.1,154.6v-6.4h65.1v6.4H51.1L51.1,154.6z M51.1,63.9v-6.7H191v6.7H51.1L51.1,63.9z M51.1,198.8v-6.7h65.1v6.7H51.1L51.1,198.8z M181.9,218.7V158h6.7v60.7H181.9L181.9,218.7z M155,191.7v-6.4h60.3v6.4H155L155,191.7z M187,246c-32.4,0-59-26.6-59-59c0-32.7,26.6-59,59-59c32.7,0,59,26.6,59,59S219.4,246,187,246L187,246z M187,134.4c-29,0-52.6,23.6-52.6,52.6s23.6,52.6,52.6,52.6s52.6-23.6,52.6-52.6S216,134.4,187,134.4L187,134.4z M222.4,119.2V54.8V35.3v-5.1c0-2,0-6.1-4.4-11.5c-2-2.4-6.7-2.4-8.8-2.4H29.9c-2,0-8.1,2.7-9.4,3.7c-1.7,1.7-3.7,8.4-3.7,10.1v4.7v18.9v171.6c0,2,1.3,7.1,4,9.1s7.4,3.7,9.1,3.7h106.2c3.7,4.4,2.4,3,6.7,6.7H31.9c-6.1,0-11.5-2.4-15.5-6.4c-4-4-6.4-9.8-6.4-15.5V31.9c0-6.1,2.4-11.5,6.4-15.5c4-4,9.8-6.4,15.5-6.4h175c6.1,0,11.5,2.4,15.5,6.4c4,4,6.4,9.8,6.4,15.5v91.7C226.1,120.9,225.8,120.9,222.4,119.2L222.4,119.2z M215.3,187L215.3,187C215.3,186.7,215.3,187,215.3,187L215.3,187L215.3,187z"/></g></g>
</svg>